<svg version="1.1" xmlns="http://www.w3.org/2000/svg" width="32" height="32" viewBox="0 0 32 32"><path d="M18.876 12.016c0.105 0.052 0.176 0.112 0.26 0.193 0.103 0.097 0.206 0.192 0.314 0.283 0.1 0.089 0.183 0.163 0.236 0.289 -0.032 0.211 -0.146 0.383 -0.273 0.549 -0.103 0.137 -0.196 0.278 -0.288 0.422l-0.107 0.166 -0.056 0.087a65.813 65.813 0 0 1 -0.286 0.436l-0.175 0.265 -0.178 0.27A156.406 156.406 0 0 1 17.75 15.844l-0.08 0.119 -0.19 0.285L17.438 16.313l-0.044 0.067 -0.046 0.068 -0.093 0.14 -0.288 0.431 -0.048 0.072 -0.095 0.142a78.844 78.844 0 0 0 -0.218 0.329c-0.744 1.126 -0.744 1.126 -0.959 1.186 -0.141 0.002 -0.2 -0.035 -0.303 -0.123l-0.066 -0.055c-0.185 -0.16 -0.35 -0.334 -0.515 -0.514a11.719 11.719 0 0 0 -0.386 -0.398c-0.125 -0.123 -0.244 -0.248 -0.358 -0.382 -0.111 -0.126 -0.232 -0.244 -0.355 -0.358C13.625 16.875 13.625 16.875 13.625 16.813h-0.063c-0.044 -0.045 -0.044 -0.045 -0.096 -0.107a4.25 4.25 0 0 0 -0.264 -0.283c-0.085 -0.083 -0.165 -0.167 -0.242 -0.258a3.438 3.438 0 0 0 -0.217 -0.231l-0.054 -0.053a11.906 11.906 0 0 0 -0.108 -0.104c-0.117 -0.114 -0.198 -0.223 -0.269 -0.37 0.034 -0.262 0.401 -0.531 0.578 -0.709l0.077 -0.078c0.352 -0.353 0.352 -0.353 0.549 -0.389 0.138 0.025 0.213 0.089 0.312 0.182l0.115 0.103 0.059 0.055c0.099 0.09 0.201 0.177 0.302 0.264a20.688 20.688 0 0 1 0.391 0.346c0.159 0.144 0.325 0.28 0.492 0.414 0.168 -0.139 0.317 -0.287 0.465 -0.447 0.16 -0.172 0.32 -0.341 0.488 -0.504 0.05 -0.047 0.05 -0.047 0.078 -0.111h0.063l0.022 -0.053c0.052 -0.092 0.117 -0.155 0.193 -0.229l0.045 -0.045q0.071 -0.07 0.143 -0.14 0.071 -0.07 0.142 -0.14 0.065 -0.064 0.129 -0.127c0.078 -0.078 0.078 -0.078 0.145 -0.167L17.156 13.563h0.063l0.021 -0.052c0.054 -0.095 0.126 -0.165 0.204 -0.24l0.049 -0.048q0.077 -0.076 0.154 -0.152c0.287 -0.281 0.287 -0.281 0.557 -0.579 0.07 -0.082 0.144 -0.158 0.22 -0.235l0.084 -0.087c0.119 -0.105 0.206 -0.181 0.368 -0.153" fill="#1E727E"/><path d="M20.5 10.219q0.109 0.016 0.219 0.031v0.063l0.098 0.024c0.368 0.106 0.608 0.428 0.793 0.744 0.3 0.586 0.228 1.31 0.163 1.942 -0.021 0.213 -0.031 0.426 -0.032 0.64l-0.002 0.087c0 0.36 0.097 0.66 0.34 0.928 0.136 0.128 0.293 0.199 0.463 0.273 0.097 0.058 0.131 0.104 0.177 0.206 0.015 0.064 0.015 0.064 0.016 0.125 0.001 0.02 0.002 0.04 0.003 0.061 -0.03 0.105 -0.092 0.151 -0.175 0.221 -0.081 0.044 -0.164 0.078 -0.25 0.111 -0.296 0.118 -0.45 0.257 -0.594 0.545 -0.098 0.258 -0.097 0.549 -0.093 0.822l0.001 0.071c0.001 0.098 0.002 0.196 0.004 0.293 0.012 0.633 -0.075 1.251 -0.517 1.74L21.031 19.219l-0.048 0.049C20.732 19.513 20.352 19.712 20 19.75l-0.077 0.01c-0.749 0.084 -0.749 0.084 -1.017 -0.041 -0.093 -0.097 -0.124 -0.149 -0.127 -0.283 0.043 -0.118 0.092 -0.168 0.189 -0.248 0.089 -0.023 0.166 -0.038 0.256 -0.049 0.31 -0.047 0.562 -0.106 0.783 -0.344 0.202 -0.278 0.248 -0.574 0.243 -0.906l-0.001 -0.18q-0.001 -0.141 -0.003 -0.281c-0.007 -0.663 -0.002 -1.34 0.48 -1.856 0.108 -0.102 0.23 -0.175 0.36 -0.247 0.065 -0.04 0.112 -0.08 0.164 -0.136l-0.06 -0.039c-0.45 -0.304 -0.69 -0.647 -0.815 -1.18 -0.058 -0.382 -0.036 -0.76 0 -1.143 0.024 -0.263 0.039 -0.525 0.041 -0.789l0.002 -0.091c0 -0.326 -0.07 -0.636 -0.293 -0.884 -0.23 -0.188 -0.494 -0.233 -0.781 -0.271 -0.103 -0.016 -0.173 -0.027 -0.25 -0.099 -0.05 -0.106 -0.054 -0.204 -0.032 -0.317 0.063 -0.104 0.117 -0.144 0.234 -0.18 0.403 -0.079 0.803 -0.043 1.204 0.023" fill="#20727D"/><path d="M12.906 10.313c0.05 0.1 0.046 0.204 0.031 0.313 -0.05 0.082 -0.09 0.114 -0.182 0.143 -0.075 0.017 -0.149 0.031 -0.225 0.045 -0.309 0.056 -0.581 0.124 -0.777 0.387 -0.248 0.451 -0.167 1.039 -0.129 1.527 0.057 0.73 0.105 1.456 -0.379 2.064 -0.151 0.158 -0.339 0.287 -0.527 0.396h-0.094l0.096 0.049 0.127 0.066 0.063 0.032c0.42 0.22 0.62 0.573 0.768 1.013 0.098 0.364 0.075 0.764 0.054 1.137 -0.026 0.473 -0.033 0.952 0.275 1.338 0.239 0.257 0.565 0.304 0.899 0.348 0.11 0.021 0.19 0.041 0.257 0.133 0.033 0.103 0.035 0.184 0.023 0.291 -0.074 0.094 -0.137 0.149 -0.257 0.166 -0.668 0.06 -1.326 0.019 -1.868 -0.416l-0.06 -0.045c-0.281 -0.22 -0.513 -0.589 -0.559 -0.946L10.438 18.25l-0.094 -0.031h0.063l-0.015 -0.073c-0.021 -0.147 -0.021 -0.292 -0.023 -0.441l-0.003 -0.194a66.969 66.969 0 0 1 -0.003 -0.303c0.016 -0.654 0.016 -0.654 -0.262 -1.223C10.063 15.938 10.063 15.938 10.063 15.875l-0.049 -0.023c-0.077 -0.04 -0.151 -0.083 -0.226 -0.126 -0.118 -0.064 -0.241 -0.12 -0.364 -0.176 -0.086 -0.052 -0.112 -0.079 -0.143 -0.174 -0.018 -0.138 -0.015 -0.198 0.066 -0.313 0.087 -0.099 0.182 -0.145 0.303 -0.197 0.245 -0.113 0.427 -0.265 0.533 -0.518 0.149 -0.486 0.088 -0.97 0.044 -1.467 -0.068 -0.767 -0.103 -1.553 0.417 -2.182C11.085 10.224 12.349 9.841 12.906 10.313" fill="#20727E"/><path d="M18 12.719c0 0.094 0 0.094 -0.041 0.144l-0.056 0.054 -0.062 0.061 -0.066 0.063c-0.171 0.163 -0.171 0.163 -0.328 0.339 -0.072 0.088 -0.148 0.165 -0.229 0.245l-0.077 0.077 -0.081 0.08 -0.136 0.135q-0.046 0.046 -0.092 0.092c-0.161 0.16 -0.319 0.321 -0.466 0.493 -0.129 0.145 -0.27 0.278 -0.408 0.414A7.656 7.656 0 0 0 15.531 15.375a44.594 44.594 0 0 1 -0.154 0.172l-0.073 0.081L15.25 15.688c-0.153 -0.082 -0.272 -0.166 -0.398 -0.287 -0.119 -0.112 -0.239 -0.22 -0.367 -0.322 -0.124 -0.1 -0.243 -0.204 -0.359 -0.313 -0.123 -0.113 -0.246 -0.225 -0.373 -0.334l-0.081 -0.07c-0.073 -0.053 -0.073 -0.053 -0.152 -0.068 -0.125 0.028 -0.204 0.108 -0.296 0.192l-0.061 0.054c-0.154 0.139 -0.303 0.282 -0.451 0.428l-0.06 0.059c-0.179 0.168 -0.179 0.168 -0.245 0.392 0.043 0.109 0.113 0.183 0.194 0.266l0.047 0.05A11.531 11.531 0 0 0 12.969 16.063l-0.031 0.063a41.969 41.969 0 0 1 -0.242 -0.236l-0.069 -0.067c-0.132 -0.13 -0.235 -0.248 -0.314 -0.416 0.034 -0.262 0.401 -0.531 0.578 -0.709l0.077 -0.078c0.352 -0.353 0.352 -0.353 0.549 -0.389 0.138 0.025 0.213 0.089 0.312 0.182l0.115 0.103 0.059 0.055c0.099 0.09 0.201 0.177 0.302 0.264a20.688 20.688 0 0 1 0.391 0.346c0.159 0.144 0.325 0.28 0.492 0.414 0.168 -0.139 0.317 -0.287 0.465 -0.447 0.16 -0.172 0.32 -0.341 0.488 -0.504 0.05 -0.047 0.05 -0.047 0.078 -0.111h0.063l0.022 -0.053c0.052 -0.092 0.117 -0.155 0.193 -0.229l0.045 -0.045q0.071 -0.07 0.143 -0.14 0.071 -0.07 0.142 -0.14 0.065 -0.064 0.129 -0.127c0.078 -0.078 0.078 -0.078 0.145 -0.167L17.156 13.563h0.063l0.021 -0.052c0.054 -0.096 0.127 -0.166 0.205 -0.242 0.016 -0.016 0.032 -0.032 0.048 -0.048 0.05 -0.05 0.101 -0.1 0.152 -0.15l0.103 -0.102A99.125 99.125 0 0 1 18 12.719" fill="#2F5F61"/><path d="M10.375 16.5c0.066 0.099 0.07 0.124 0.07 0.237l0.001 0.088 0 0.096 0.002 0.202q0.001 0.159 0.001 0.317c0.002 0.672 0.061 1.27 0.551 1.778 0.099 0.082 0.202 0.152 0.313 0.219l0.057 0.037c0.347 0.201 0.762 0.225 1.152 0.227l0.106 0.001c0.247 -0.002 0.247 -0.002 0.466 -0.108 0.039 -0.091 0.039 -0.091 0.031 -0.188 -0.045 -0.079 -0.073 -0.118 -0.16 -0.148l-0.076 -0.011 -0.085 -0.014 -0.175 -0.025c-0.362 -0.059 -0.6 -0.225 -0.816 -0.521 -0.098 -0.166 -0.098 -0.166 -0.08 -0.256L11.75 18.375l0.032 0.074c0.136 0.294 0.293 0.493 0.598 0.618 0.142 0.042 0.288 0.065 0.434 0.087 0.271 0.041 0.271 0.041 0.35 0.148 0.033 0.103 0.035 0.184 0.023 0.291 -0.074 0.094 -0.137 0.149 -0.257 0.166 -0.668 0.06 -1.326 0.019 -1.868 -0.416l-0.06 -0.045c-0.281 -0.22 -0.513 -0.589 -0.559 -0.946L10.438 18.25l-0.094 -0.031h0.063l-0.015 -0.072c-0.021 -0.157 -0.02 -0.311 -0.019 -0.469l0 -0.102c0 -0.107 0.001 -0.215 0.001 -0.322l0 -0.219q0.001 -0.268 0.002 -0.535" fill="#2D595C"/><path d="m21.344 15.281 -0.072 0.032c-0.39 0.183 -0.65 0.409 -0.81 0.814 -0.094 0.271 -0.122 0.509 -0.117 0.795q0.001 0.098 0.002 0.196c0.001 0.102 0.003 0.204 0.004 0.306 0.019 1.082 0.019 1.082 -0.383 1.512 -0.224 0.223 -0.557 0.292 -0.863 0.304 -0.08 0.009 -0.131 0.028 -0.199 0.071 -0.044 0.087 -0.039 0.153 -0.031 0.25 0.058 0.08 0.092 0.093 0.188 0.125 0.538 0.036 1.028 0.007 1.521 -0.222L20.656 19.438l0.063 0.031c-0.472 0.251 -0.472 0.251 -0.719 0.281l-0.077 0.01c-0.75 0.084 -0.75 0.084 -1.017 -0.042 -0.093 -0.097 -0.124 -0.149 -0.127 -0.283 0.043 -0.118 0.092 -0.168 0.189 -0.248 0.089 -0.023 0.166 -0.038 0.256 -0.049 0.31 -0.047 0.562 -0.106 0.783 -0.344 0.202 -0.278 0.248 -0.574 0.243 -0.906l-0.001 -0.18q-0.001 -0.141 -0.003 -0.281c-0.007 -0.663 -0.002 -1.34 0.48 -1.856 0.155 -0.146 0.4 -0.354 0.617 -0.289" fill="#2D5A5E"/><path d="m10.781 10.563 0.063 0.031 -0.041 0.044c-0.422 0.462 -0.527 0.946 -0.527 1.554l0 0.108A7.5 7.5 0 0 0 10.313 12.994c0.117 1.188 0.117 1.188 -0.221 1.658L10.031 14.719h-0.063v0.063l-0.048 0.024c-0.071 0.037 -0.143 0.073 -0.214 0.11l-0.075 0.038 -0.072 0.038 -0.066 0.034c-0.065 0.037 -0.065 0.037 -0.118 0.13 -0.011 0.061 -0.011 0.061 -0.01 0.125l-0.002 0.064c0.015 0.082 0.038 0.104 0.105 0.154a4.781 4.781 0 0 0 0.205 0.082c0.28 0.113 0.529 0.289 0.651 0.574 0.032 0.104 0.042 0.204 0.05 0.312 -0.069 -0.069 -0.078 -0.103 -0.103 -0.195 -0.045 -0.143 -0.109 -0.225 -0.209 -0.336v-0.063l-0.049 -0.023c-0.077 -0.04 -0.151 -0.083 -0.226 -0.126 -0.118 -0.064 -0.241 -0.12 -0.364 -0.176 -0.086 -0.052 -0.112 -0.079 -0.143 -0.174 -0.018 -0.138 -0.015 -0.198 0.066 -0.313 0.087 -0.099 0.182 -0.145 0.303 -0.197 0.245 -0.113 0.427 -0.265 0.533 -0.518 0.149 -0.486 0.088 -0.97 0.044 -1.467 -0.064 -0.722 -0.12 -1.52 0.369 -2.117A7.375 7.375 0 0 1 10.781 10.563" fill="#326366"/><path d="M19.125 12.25c0.125 0.052 0.218 0.138 0.316 0.229l0.051 0.045c0.097 0.088 0.165 0.16 0.195 0.289 -0.011 0.064 -0.011 0.064 -0.037 0.125l-0.028 0.065c-0.058 0.12 -0.127 0.223 -0.208 0.328 -0.102 0.136 -0.195 0.277 -0.287 0.421l-0.107 0.166 -0.056 0.087c-0.156 0.241 -0.314 0.481 -0.472 0.722q-0.061 0.093 -0.122 0.187 -0.09 0.137 -0.18 0.274l-0.055 0.085 -0.051 0.077 -0.045 0.068C18 15.469 18 15.469 17.938 15.5c0.052 -0.156 0.142 -0.284 0.232 -0.42l0.052 -0.078q0.055 -0.083 0.11 -0.166 0.086 -0.13 0.172 -0.26 0.115 -0.174 0.231 -0.349a195.25 195.25 0 0 0 0.412 -0.624q0.054 -0.083 0.109 -0.165 0.092 -0.14 0.182 -0.282l0.051 -0.08c0.063 -0.104 0.103 -0.177 0.113 -0.299 -0.058 -0.132 -0.151 -0.209 -0.26 -0.302q-0.061 -0.054 -0.122 -0.108l-0.055 -0.047L19.125 12.281z" fill="#2F5B5D"/><path d="M14.188 17.406h0.063a6.469 6.469 0 0 1 0.125 0.156c0.07 0.072 0.141 0.142 0.213 0.212q0.094 0.092 0.188 0.185l0.066 0.064 0.062 0.061 0.056 0.056C15 18.188 15 18.188 15 18.25l0.053 0.02c0.081 0.048 0.126 0.108 0.184 0.181 0.102 0.115 0.208 0.195 0.359 0.226 0.212 -0.045 0.329 -0.233 0.441 -0.404l0.089 -0.133 0.046 -0.069c0.078 -0.117 0.157 -0.233 0.236 -0.349l0.044 -0.066c0.103 -0.152 0.103 -0.152 0.173 -0.186 -0.132 0.365 -0.423 0.692 -0.656 1l-0.063 0.084c-0.086 0.108 -0.135 0.158 -0.267 0.205 -0.132 -0.01 -0.198 -0.049 -0.295 -0.133l-0.066 -0.055c-0.185 -0.16 -0.35 -0.334 -0.515 -0.514 -0.146 -0.159 -0.298 -0.312 -0.453 -0.462 -0.042 -0.041 -0.082 -0.083 -0.122 -0.126z" fill="#2B5759"/><path d="M20.25 10.188v0.031l-0.073 0.002c-0.111 0.003 -0.222 0.006 -0.333 0.01l-0.116 0.003c-0.2 0.006 -0.38 0.02 -0.572 0.079 -0.038 0.168 -0.038 0.168 0.008 0.324 0.058 0.057 0.058 0.057 0.148 0.113 -0.072 0.008 -0.072 0.008 -0.156 0 -0.091 -0.076 -0.094 -0.13 -0.109 -0.248 0.005 -0.097 0.018 -0.13 0.07 -0.217 0.304 -0.199 0.789 -0.163 1.133 -0.098" fill="#346266"/><path d="M16.719 14.094c0 0.201 -0.252 0.377 -0.39 0.515a51.813 51.813 0 0 1 -0.172 0.17c-0.117 0.116 -0.228 0.234 -0.331 0.363 -0.052 0.052 -0.103 0.079 -0.17 0.108 0.083 -0.131 0.168 -0.238 0.28 -0.347 0.022 -0.022 0.022 -0.022 0.044 -0.044q0.069 -0.068 0.139 -0.136c0.197 -0.193 0.39 -0.387 0.568 -0.598z" fill="#207B88"/><path d="m12.969 16.125 0.125 0.063v0.063l0.094 0.031c0.05 0.051 0.05 0.051 0.104 0.115 0.071 0.084 0.143 0.164 0.223 0.24C13.594 16.719 13.594 16.719 13.594 16.781l0.054 0.022c0.09 0.051 0.144 0.115 0.212 0.193 0.086 0.098 0.172 0.194 0.266 0.285l-0.031 0.063 -0.375 -0.375 -0.053 -0.049C13.625 16.875 13.625 16.875 13.625 16.813h-0.063c-0.044 -0.045 -0.044 -0.045 -0.096 -0.107 -0.143 -0.168 -0.298 -0.325 -0.46 -0.475C12.969 16.188 12.969 16.188 12.969 16.125" fill="#2C5B5E"/><path d="M19.125 12.25c0.125 0.052 0.218 0.138 0.316 0.229l0.051 0.045c0.097 0.088 0.165 0.16 0.195 0.289 -0.011 0.064 -0.011 0.064 -0.037 0.125l-0.028 0.065c-0.092 0.193 -0.221 0.377 -0.372 0.528 0.021 -0.153 0.125 -0.271 0.211 -0.394 0.086 -0.128 0.128 -0.229 0.132 -0.387 -0.093 -0.144 -0.22 -0.247 -0.351 -0.356C19.188 12.344 19.188 12.344 19.125 12.25" fill="#346163"/><path d="m13.281 14.406 0.063 0.031c-0.394 0.399 -0.394 0.399 -0.543 0.525 -0.25 0.211 -0.25 0.211 -0.363 0.506h-0.063c0.015 -0.149 0.046 -0.222 0.148 -0.33l0.076 -0.081q0.044 -0.045 0.088 -0.089l0.05 -0.051c0.175 -0.179 0.349 -0.353 0.544 -0.511" fill="#257D89"/><path d="M21.719 14.125c0.063 0.031 0.063 0.031 0.087 0.093l0.026 0.079c0.14 0.357 0.399 0.514 0.73 0.672 -0.094 0.031 -0.094 0.031 -0.183 -0.003 -0.289 -0.15 -0.505 -0.325 -0.63 -0.636 -0.031 -0.111 -0.031 -0.111 -0.031 -0.205" fill="#316266"/><path d="m17.625 13.156 0.031 0.094a33.5 33.5 0 0 1 -0.152 0.156l-0.086 0.088C17.344 13.563 17.344 13.563 17.281 13.563l-0.025 0.056c-0.038 0.07 -0.076 0.115 -0.132 0.17l-0.055 0.054 -0.057 0.056 -0.058 0.057Q16.883 14.025 16.813 14.094l-0.063 -0.031 0.04 -0.039c0.317 -0.31 0.317 -0.31 0.61 -0.641L17.438 13.344h0.063l0.027 -0.059C17.563 13.219 17.563 13.219 17.625 13.156" fill="#237D8A"/><path d="m18.656 12.063 0.094 0.031 -0.052 0.037c-0.171 0.126 -0.311 0.264 -0.45 0.425A2.625 2.625 0 0 1 18.094 12.719l-0.063 -0.031c0.127 -0.152 0.261 -0.295 0.4 -0.436l0.045 -0.046c0.109 -0.108 0.109 -0.108 0.179 -0.144" fill="#306569"/><path d="m11.718 10.183 0.118 0.005 0.063 0.002c0.066 0.003 0.132 0.006 0.199 0.009q0.067 0.003 0.135 0.005 0.165 0.007 0.33 0.014v0.031l-0.066 0.002q-0.151 0.006 -0.303 0.011l-0.104 0.004c-0.218 0.008 -0.435 0.023 -0.652 0.045l0.059 -0.027c0.19 -0.1 0.19 -0.1 0.222 -0.102" fill="#2B808C"/><path d="M18.313 12.438h0.063c-0.044 0.099 -0.095 0.164 -0.171 0.24l-0.063 0.063 -0.066 0.065 -0.067 0.066Q17.926 12.951 17.844 13.031l-0.063 -0.031 0.047 -0.046c0.02 -0.02 0.04 -0.04 0.061 -0.06l0.06 -0.059c0.053 -0.051 0.053 -0.051 0.082 -0.116h0.063l0.031 -0.094a4.406 4.406 0 0 1 0.156 -0.156z" fill="#247F8C"/><path d="M20.938 15.469c0 0.094 0 0.094 -0.068 0.171L20.781 15.725l-0.088 0.085L20.625 15.875c0 -0.116 0.027 -0.136 0.104 -0.221l0.058 -0.066C20.844 15.531 20.844 15.531 20.938 15.469" fill="#237A87"/><path d="M13.406 14.25v0.094c-0.075 0.071 -0.075 0.071 -0.172 0.146l-0.097 0.077L13.063 14.625l-0.063 -0.031q0.084 -0.077 0.168 -0.154l0.048 -0.044c0.121 -0.11 0.121 -0.11 0.19 -0.145" fill="#30686C"/><path d="m11 10.469 0.063 0.031c-0.156 0.125 -0.156 0.125 -0.234 0.186 -0.084 0.069 -0.159 0.143 -0.234 0.221 0.085 -0.184 0.217 -0.353 0.406 -0.438" fill="#26818E"/><path d="m18.688 12.094 0.063 0.031 -0.313 0.313 -0.063 -0.031c0.192 -0.234 0.192 -0.234 0.313 -0.313" fill="#24808D"/><path d="M9.281 15.156c0.102 0.102 0.125 0.234 0.125 0.375 -0.094 -0.063 -0.094 -0.063 -0.125 -0.156a6.094 6.094 0 0 1 0 -0.219" fill="#31686E"/><path d="m16.438 14.313 0.063 0.063 -0.219 0.188c0.033 -0.131 0.06 -0.163 0.156 -0.25" fill="#30696C"/><path d="M10.406 18.125h0.063c0.02 0.09 0.02 0.09 0.031 0.188l-0.063 0.063v-0.125l-0.094 -0.031h0.063z" fill="#2D6166"/><path d="m11.563 19.656 0.063 0.031Z" fill="#296F79"/><path d="m18.75 19.594 0.063 0.031Z" fill="#2C6C74"/><path d="" fill="#2B6E77"/><path d="m10.5 18.75 0.063 0.031Z" fill="#2B6F79"/><path d="" fill="#347E89"/><path d="m12.438 10.844 0.063 0.031Z" fill="#327C86"/><path d="" fill="#606160"/><path d="" fill="#606261"/><path d="" fill="#616061"/><path d="" fill="#616161"/><path d="" fill="#616161"/><path d="" fill="#606161"/><path d="" fill="#616262"/><path d="" fill="#616062"/><path d="" fill="#606263"/><path d="" fill="#606362"/><path d="" fill="#5E615F"/><path d="" fill="#626261"/><path d="" fill="#626361"/><path d="" fill="#5F6161"/><path d="" fill="#606160"/><path d="" fill="#5F6260"/><path d="" fill="#60615F"/><path d="" fill="#616160"/><path d="" fill="#60615F"/><path d="" fill="#616260"/><path d="" fill="#606262"/><path d="" fill="#626461"/><path d="" fill="#5F6463"/><path d="" fill="#606262"/><path d="" fill="#606460"/><path d="" fill="#626361"/><path d="" fill="#636162"/><path d="" fill="#616360"/><path d="" fill="#5F6261"/><path d="" fill="#60645F"/><path d="" fill="#5E6463"/><path d="" fill="#606361"/><path d="" fill="#606261"/><path d="" fill="#626261"/><path d="" fill="#616360"/><path d="" fill="#636261"/><path d="" fill="#616461"/><path d="" fill="#606363"/><path d="" fill="#5E6662"/><path d="" fill="#5F6362"/><path d="" fill="#606360"/><path d="" fill="#606362"/><path d="" fill="#606462"/><path d="" fill="#626461"/><path d="" fill="#606361"/><path d="" fill="#636363"/><path d="" fill="#636363"/><path d="" fill="#626361"/><path d="" fill="#5C6461"/><path d="" fill="#5E6363"/><path d="" fill="#5C6362"/><path d="" fill="#566362"/><path d="" fill="#5A6564"/><path d="" fill="#5E6763"/><path d="" fill="#5D6564"/><path d="" fill="#556462"/><path d="" fill="#646565"/><path d="" fill="#646564"/><path d="" fill="#636766"/><path d="" fill="#656765"/><path d="" fill="#4E6465"/><path d="" fill="#5F6666"/><path d="" fill="#576767"/><path d="" fill="#546867"/><path d="" fill="#636767"/><path d="" fill="#5D6766"/><path d="" fill="#45686B"/><path d="" fill="#4E6A6B"/><path d="" fill="#666869"/><path d="" fill="#296E78"/><path d="" fill="#2D6F78"/><path d="" fill="#616967"/><path d="" fill="#2C717A"/><path d="" fill="#306F77"/><path d="" fill="#2C7079"/><path d="" fill="#676969"/><path d="" fill="#3A6D74"/><path d="" fill="#496B70"/><path d="" fill="#666968"/><path d="" fill="#2D7178"/><path d="" fill="#2C7178"/><path d="" fill="#2E6D75"/><path d="" fill="#556B6B"/><path d="" fill="#2C717A"/><path d="" fill="#2E6F78"/><path d="" fill="#2B6E78"/><path d="" fill="#2A6F78"/><path d="" fill="#2A6F78"/><path d="" fill="#2A6E78"/><path d="" fill="#2B6E77"/><path d="" fill="#286F7A"/><path d="" fill="#446D73"/><path d="" fill="#2C7279"/><path d="" fill="#29747D"/><path d="" fill="#2D717B"/><path d="" fill="#28707A"/><path d="" fill="#666967"/><path d="" fill="#2C717C"/><path d="" fill="#29727B"/><path d="" fill="#24707A"/><path d="" fill="#2C737C"/><path d="" fill="#2D6F7A"/><path d="" fill="#286E78"/><path d="" fill="#29707D"/><path d="" fill="#2C727C"/><path d="" fill="#2B737F"/><path d="" fill="#2B747F"/><path d="" fill="#2C747E"/><path d="" fill="#27747C"/><path d="" fill="#2C767E"/><path d="" fill="#2A727E"/><path d="" fill="#2E7581"/><path d="" fill="#2D767E"/><path d="" fill="#307680"/><path d="" fill="#2E7784"/><path d="" fill="#2C7780"/><path d="" fill="#2C757E"/><path d="" fill="#307B82"/><path d="" fill="#2F7985"/><path d="" fill="#2D7880"/><path d="" fill="#2E7984"/><path d="" fill="#2E7B85"/><path d="" fill="#307A83"/><path d="" fill="#307984"/><path d="" fill="#2F7882"/><path d="" fill="#2F7B84"/><path d="" fill="#347C87"/><path d="" fill="#317B85"/><path d="" fill="#2F7D85"/><path d="" fill="#317F88"/><path d="" fill="#2E7E89"/><path d="" fill="#307881"/><path d="" fill="#387B82"/><path d="" fill="#2E7C85"/><path d="" fill="#307883"/><path d="" fill="#596B6B"/><path d="" fill="#3A7C85"/><path d="" fill="#2F8087"/><path d="" fill="#2E7C83"/><path d="" fill="#2C8089"/><path d="" fill="#2B7B85"/><path d="" fill="#2C7F87"/><path d="" fill="#646A6A"/><path d="" fill="#636C69"/><path d="" fill="#307D87"/><path d="" fill="#377E87"/><path d="" fill="#2F7E89"/><path d="" fill="#2F7E89"/><path d="" fill="#318189"/><path d="" fill="#666869"/><path d="" fill="#557070"/><path d="" fill="#357D86"/><path d="" fill="#32818B"/><path d="" fill="#347D86"/><path d="" fill="#2F7D89"/><path d="" fill="#31808A"/><path d="" fill="#307F89"/><path d="" fill="#327D87"/><path d="" fill="#338089"/><path d="" fill="#307F8A"/><path d="" fill="#327E8B"/><path d="" fill="#367F86"/><path d="" fill="#5B6D6D"/><path d="" fill="#337D87"/><path d="" fill="#307F8A"/><path d="" fill="#527072"/><path d="" fill="#31818B"/><path d="" fill="#30808A"/><path d="" fill="#2B7F8A"/><path d="" fill="#656968"/><path d="" fill="#5F6D6D"/><path d="" fill="#40767D"/><path d="" fill="#616E6A"/><path d="" fill="#437579"/><path d="" fill="#4A7579"/><path d="" fill="#666A68"/><path d="" fill="#3B7F86"/><path d="" fill="#367D85"/><path d="" fill="#666A67"/><path d="" fill="#4E6F71"/><path d="" fill="#5B6C6C"/><path d="" fill="#636C6A"/><path d="" fill="#646968"/><path d="" fill="#646A69"/><path d="" fill="#656766"/><path d="" fill="#5A6C6D"/><path d="" fill="#5F6A69"/><path d="" fill="#5B6B6A"/><path d="" fill="#5E6C68"/><path d="" fill="#5D6B69"/><path d="" fill="#5D6A69"/><path d="" fill="#606B6A"/><path d="" fill="#646664"/><path d="" fill="#616A68"/><path d="" fill="#626767"/><path d="" fill="#646768"/><path d="" fill="#646362"/><path d="" fill="#656965"/><path d="" fill="#636765"/><path d="" fill="#636766"/><path d="" fill="#656565"/><path d="" fill="#646967"/><path d="" fill="#646667"/><path d="" fill="#626464"/><path d="" fill="#656666"/><path d="" fill="#646767"/><path d="" fill="#656564"/><path d="" fill="#656767"/><path d="" fill="#646664"/><path d="" fill="#656766"/><path d="" fill="#656765"/><path d="" fill="#656667"/><path d="" fill="#666767"/><path d="" fill="#646766"/><path d="" fill="#656766"/><path d="" fill="#666867"/></svg>