<svg version="1.1" xmlns="http://www.w3.org/2000/svg" width="1024" height="1024" viewBox="0 0 1024 1024"><path d="M604.04 384.52c3.348 1.674 5.632 3.58 8.335 6.168 3.292 3.113 6.586 6.157 10.063 9.062 3.201 2.845 5.871 5.224 7.562 9.25 -1.01 6.768 -4.66 12.258 -8.734 17.584 -3.285 4.373 -6.265 8.906 -9.215 13.51l-3.44 5.324 -1.793 2.777c-3.026 4.669 -6.087 9.316 -9.15 13.961l-5.6 8.492 -5.691 8.633A5005 5005 0 0 1 568 507q-1.274 1.91 -2.547 3.82l-6.085 9.128L558 522l-1.423 2.134 -1.46 2.19 -2.992 4.489 -9.203 13.804 -1.528 2.293 -3.03 4.541c-2.337 3.503 -4.67 7.008 -6.989 10.522 -23.811 36.018 -23.811 36.018 -30.687 37.965 -4.511 0.076 -6.414 -1.115 -9.688 -3.938l-2.105 -1.746c-5.92 -5.108 -11.207 -10.7 -16.495 -16.447a375 375 0 0 0 -12.337 -12.745c-3.99 -3.941 -7.808 -7.94 -11.442 -12.218 -3.545 -4.032 -7.416 -7.803 -11.355 -11.45C436 540 436 540 436 538h-2c-1.41 -1.434 -1.41 -1.434 -3.062 -3.437a136 136 0 0 0 -8.438 -9.063c-2.704 -2.668 -5.293 -5.355 -7.75 -8.25a110 110 0 0 0 -6.934 -7.395l-1.743 -1.706a381 381 0 0 0 -3.455 -3.318c-3.74 -3.637 -6.322 -7.127 -8.618 -11.831 1.077 -8.399 12.825 -17.008 18.5 -22.687l2.473 -2.51c11.28 -11.308 11.28 -11.308 17.558 -12.44 4.412 0.81 6.812 2.833 9.969 5.825l3.672 3.312 1.9 1.746c3.168 2.882 6.429 5.653 9.678 8.442a662 662 0 0 1 12.5 11.062c5.088 4.617 10.397 8.946 15.75 13.25 5.38 -4.437 10.15 -9.19 14.875 -14.312 5.106 -5.488 10.239 -10.903 15.621 -16.122 1.6 -1.511 1.6 -1.511 2.504 -3.566h2l0.696 -1.686c1.664 -2.953 3.75 -4.967 6.171 -7.341l1.443 -1.427q2.277 -2.248 4.565 -4.483 2.276 -2.234 4.544 -4.473 2.066 -2.038 4.14 -4.066c2.496 -2.49 2.496 -2.49 4.637 -5.347L549 434h2l0.675 -1.665c1.725 -3.04 4.042 -5.28 6.524 -7.694l1.556 -1.54q2.46 -2.432 4.933 -4.851c9.193 -9.006 9.193 -9.006 17.838 -18.534 2.246 -2.615 4.62 -5.07 7.037 -7.529l2.69 -2.769c3.804 -3.349 6.578 -5.789 11.786 -4.898" fill="#1E727E"/><path d="M656 327q3.5 0.508 7 1v2l3.129 0.754c11.781 3.392 19.453 13.705 25.363 23.793 9.608 18.76 7.302 41.928 5.231 62.158 -0.668 6.832 -0.977 13.619 -1.035 20.483l-0.053 2.787c0.008 11.515 3.107 21.126 10.888 29.705 4.337 4.082 9.386 6.357 14.805 8.73 3.109 1.85 4.18 3.324 5.672 6.59 0.469 2.063 0.469 2.063 0.5 4 0.03 0.64 0.062 1.279 0.094 1.938 -0.97 3.368 -2.93 4.843 -5.594 7.062 -2.588 1.398 -5.263 2.49 -8 3.563 -9.467 3.764 -14.39 8.218 -19 17.437 -3.14 8.269 -3.09 17.574 -2.992 26.29l0.024 2.279c0.036 3.13 0.077 6.262 0.14 9.392 0.378 20.266 -2.405 40.033 -16.547 55.664L673 615l-1.527 1.574C663.416 624.42 651.254 630.773 640 632l-2.457 0.324c-23.972 2.703 -23.972 2.703 -32.543 -1.324 -2.964 -3.105 -3.975 -4.767 -4.062 -9.062 1.37 -3.79 2.942 -5.38 6.062 -7.938 2.835 -0.738 5.314 -1.223 8.188 -1.562 9.93 -1.496 17.983 -3.39 25.054 -11.02 6.458 -8.883 7.922 -18.37 7.785 -29.004l-0.037 -5.762q-0.035 -4.498 -0.086 -8.996c-0.224 -21.23 -0.07 -42.865 15.346 -59.406 3.463 -3.277 7.357 -5.592 11.516 -7.89 2.092 -1.274 3.597 -2.553 5.234 -4.36l-1.906 -1.25c-14.4 -9.715 -22.084 -20.7 -26.094 -37.75 -1.847 -12.214 -1.142 -24.32 0 -36.562 0.766 -8.422 1.244 -16.793 1.313 -25.25l0.052 -2.907c-0.007 -10.439 -2.255 -20.34 -9.365 -28.281 -7.375 -6.02 -15.808 -7.463 -24.986 -8.68 -3.286 -0.51 -5.531 -0.87 -8.002 -3.175 -1.595 -3.38 -1.728 -6.544 -1.012 -10.145 2.022 -3.322 3.75 -4.624 7.477 -5.746 12.887 -2.518 25.683 -1.389 38.523 0.746" fill="#20727D"/><path d="M413 330c1.605 3.21 1.47 6.518 1 10 -1.592 2.63 -2.88 3.645 -5.812 4.574 -2.387 0.549 -4.778 0.996 -7.188 1.426 -9.886 1.796 -18.6 3.964 -24.875 12.375 -7.94 14.423 -5.35 33.24 -4.125 48.875 1.822 23.358 3.357 46.576 -12.125 66.063 -4.819 5.071 -10.852 9.171 -16.875 12.687h-3l3.07 1.574 4.055 2.113 2.016 1.03c13.429 7.043 19.845 18.328 24.574 32.412 3.123 11.648 2.403 24.463 1.723 36.371 -0.826 15.138 -1.066 30.46 8.812 42.813 7.64 8.21 18.072 9.718 28.762 11.125 3.517 0.662 6.069 1.321 8.238 4.25 1.067 3.289 1.118 5.877 0.75 9.312 -2.374 3.007 -4.376 4.768 -8.215 5.316 -21.372 1.932 -42.429 0.607 -59.785 -13.316l-1.922 -1.43c-8.983 -7.035 -16.423 -18.863 -17.89 -30.258L334 584l-3 -1h2l-0.487 -2.347c-0.662 -4.714 -0.688 -9.344 -0.724 -14.098l-0.086 -6.203a2143 2143 0 0 1 -0.104 -9.696c0.517 -20.934 0.517 -20.934 -8.392 -39.133C322 510 322 510 322 508l-1.562 -0.75c-2.465 -1.264 -4.84 -2.65 -7.231 -4.047 -3.785 -2.063 -7.72 -3.834 -11.633 -5.64 -2.766 -1.68 -3.57 -2.54 -4.574 -5.563 -0.572 -4.415 -0.47 -6.325 2.102 -10.02 2.794 -3.18 5.81 -4.628 9.71 -6.293 7.828 -3.61 13.67 -8.47 17.063 -16.562 4.778 -15.566 2.83 -31.026 1.407 -46.94 -2.18 -24.559 -3.306 -49.695 13.343 -69.81C354.727 327.156 395.175 314.917 413 330" fill="#20727E"/><path d="M576 407c0 3 0 3 -1.298 4.622l-1.807 1.741 -1.983 1.94 -2.1 2.01c-5.458 5.226 -5.458 5.226 -10.488 10.855 -2.301 2.805 -4.743 5.284 -7.324 7.832l-2.476 2.46 -2.579 2.56 -4.337 4.317q-1.477 1.469 -2.955 2.935c-5.156 5.112 -10.2 10.259 -14.923 15.778 -4.113 4.637 -8.64 8.895 -13.058 13.24A245 245 0 0 0 497 492a1427 1427 0 0 1 -4.937 5.5l-2.34 2.594L488 502c-4.895 -2.612 -8.711 -5.322 -12.75 -9.187 -3.809 -3.593 -7.662 -7.034 -11.75 -10.313 -3.976 -3.2 -7.765 -6.527 -11.5 -10 -3.925 -3.627 -7.875 -7.214 -11.937 -10.687l-2.59 -2.231c-2.343 -1.686 -2.343 -1.686 -4.86 -2.168 -4.005 0.898 -6.536 3.452 -9.488 6.149l-1.956 1.744c-4.924 4.44 -9.704 9.032 -14.419 13.693l-1.914 1.885c-5.717 5.373 -5.717 5.373 -7.848 12.556 1.377 3.482 3.631 5.855 6.2 8.497l1.505 1.592A369 369 0 0 0 415 514l-1 2a1343 1343 0 0 1 -7.75 -7.562l-2.21 -2.135c-4.21 -4.152 -7.52 -7.929 -10.04 -13.303 1.077 -8.399 12.825 -17.008 18.5 -22.687l2.473 -2.51c11.28 -11.308 11.28 -11.308 17.558 -12.44 4.412 0.81 6.812 2.833 9.969 5.825l3.672 3.312 1.9 1.746c3.168 2.882 6.429 5.653 9.678 8.442a662 662 0 0 1 12.5 11.062c5.088 4.617 10.397 8.946 15.75 13.25 5.38 -4.437 10.15 -9.19 14.875 -14.312 5.106 -5.488 10.239 -10.903 15.621 -16.122 1.6 -1.511 1.6 -1.511 2.504 -3.566h2l0.696 -1.686c1.664 -2.953 3.75 -4.967 6.171 -7.341l1.443 -1.427q2.277 -2.248 4.565 -4.483 2.276 -2.234 4.544 -4.473 2.066 -2.038 4.14 -4.066c2.496 -2.49 2.496 -2.49 4.637 -5.347L549 434h2l0.673 -1.661c1.734 -3.057 4.065 -5.324 6.554 -7.76 0.507 -0.506 1.015 -1.01 1.538 -1.53 1.615 -1.605 3.238 -3.202 4.86 -4.799l3.297 -3.27A3172 3172 0 0 1 576 407" fill="#2F5F61"/><path d="M332 528c2.12 3.18 2.25 3.96 2.255 7.6l0.021 2.826 -0.003 3.058 0.063 6.465q0.034 5.074 0.045 10.15c0.063 21.494 1.962 40.643 17.619 56.901 3.173 2.638 6.472 4.867 10 7l1.816 1.176c11.094 6.427 24.39 7.195 36.872 7.261l3.401 0.03c7.9 -0.063 7.9 -0.063 14.911 -3.467 1.247 -2.897 1.247 -2.897 1 -6 -1.455 -2.536 -2.334 -3.767 -5.125 -4.742l-2.445 -0.348 -2.72 -0.44 -5.6 -0.804c-11.581 -1.872 -19.19 -7.208 -26.11 -16.666 -3.137 -5.3 -3.137 -5.3 -2.574 -8.184L376 588l1.031 2.379c4.346 9.42 9.387 15.784 19.133 19.785 4.553 1.342 9.206 2.095 13.896 2.798 8.668 1.32 8.668 1.32 11.19 4.726 1.067 3.289 1.118 5.877 0.75 9.312 -2.374 3.007 -4.376 4.768 -8.215 5.316 -21.372 1.932 -42.429 0.607 -59.785 -13.316l-1.922 -1.43c-8.983 -7.035 -16.423 -18.863 -17.89 -30.258L334 584l-3 -1h2l-0.494 -2.293c-0.685 -5.019 -0.629 -9.953 -0.604 -15.012l0.005 -3.27c0.005 -3.433 0.018 -6.867 0.03 -10.3q0.008 -3.5 0.014 -7 0.017 -8.562 0.049 -17.125" fill="#2D595C"/><path d="m683 489 -2.309 1.031c-12.47 5.854 -20.797 13.083 -25.91 26.063 -3.008 8.682 -3.905 16.296 -3.738 25.43q0.034 3.142 0.064 6.285c0.037 3.269 0.08 6.537 0.14 9.806 0.603 34.633 0.603 34.633 -12.247 48.385 -7.178 7.127 -17.833 9.348 -27.625 9.727 -2.568 0.295 -4.195 0.9 -6.375 2.273 -1.4 2.799 -1.253 4.905 -1 8 1.853 2.56 2.938 2.98 6 4 17.223 1.15 32.885 0.235 48.672 -7.11L661 622l2 1c-15.114 8.04 -15.114 8.04 -23 9l-2.465 0.328c-24.005 2.68 -24.005 2.68 -32.535 -1.328 -2.964 -3.105 -3.975 -4.767 -4.062 -9.062 1.37 -3.79 2.942 -5.38 6.062 -7.938 2.835 -0.738 5.314 -1.223 8.188 -1.562 9.93 -1.496 17.983 -3.39 25.054 -11.02 6.458 -8.883 7.922 -18.37 7.785 -29.004l-0.037 -5.762q-0.035 -4.498 -0.086 -8.996c-0.224 -21.23 -0.07 -42.865 15.346 -59.406 4.954 -4.677 12.814 -11.33 19.75 -9.25" fill="#2D5A5E"/><path d="m345 338 2 1 -1.32 1.398c-13.498 14.784 -16.88 30.258 -16.868 49.727l-0.001 3.444A240 240 0 0 0 330 415.812c3.729 38.02 3.729 38.02 -7.062 53.063L321 471h-2v2l-1.529 0.779c-2.286 1.17 -4.566 2.351 -6.846 3.534l-2.406 1.224 -2.305 1.201 -2.126 1.095c-2.094 1.2 -2.094 1.2 -3.788 4.167 -0.352 1.95 -0.352 1.95 -0.312 4l-0.051 2.063c0.493 2.629 1.218 3.333 3.363 4.937a153 153 0 0 0 6.563 2.625c8.946 3.614 16.916 9.242 20.832 18.379 1.01 3.329 1.357 6.529 1.605 9.996 -2.205 -2.205 -2.498 -3.311 -3.312 -6.25 -1.434 -4.588 -3.495 -7.212 -6.688 -10.75v-2l-1.562 -0.75c-2.465 -1.264 -4.84 -2.65 -7.231 -4.047 -3.785 -2.063 -7.72 -3.834 -11.633 -5.64 -2.766 -1.68 -3.57 -2.54 -4.574 -5.563 -0.572 -4.415 -0.47 -6.325 2.102 -10.02 2.794 -3.18 5.81 -4.628 9.71 -6.293 7.828 -3.61 13.67 -8.47 17.063 -16.562 4.778 -15.566 2.83 -31.026 1.407 -46.94 -2.05 -23.093 -3.852 -48.633 11.816 -67.744A236 236 0 0 1 345 338" fill="#326366"/><path d="M612 392c4.007 1.655 6.97 4.422 10.125 7.313l1.629 1.435c3.091 2.818 5.284 5.128 6.246 9.252 -0.355 2.063 -0.355 2.063 -1.187 4l-0.899 2.094c-1.84 3.836 -4.071 7.13 -6.65 10.497 -3.275 4.357 -6.249 8.872 -9.19 13.46l-3.436 5.319 -1.8 2.79c-4.996 7.721 -10.049 15.406 -15.099 23.093q-1.959 2.984 -3.912 5.971 -2.866 4.383 -5.745 8.756l-1.767 2.711 -1.632 2.474 -1.429 2.179C576 495 576 495 574 496c1.674 -5 4.53 -9.088 7.434 -13.437l1.653 -2.5q1.757 -2.657 3.52 -5.31 2.759 -4.152 5.509 -8.314 3.691 -5.583 7.388 -11.162a6248 6248 0 0 0 13.175 -19.96q1.744 -2.649 3.495 -5.294 2.949 -4.488 5.826 -9.023l1.646 -2.559c2.02 -3.33 3.291 -5.663 3.608 -9.578 -1.855 -4.236 -4.848 -6.702 -8.317 -9.675q-1.957 -1.725 -3.91 -3.458l-1.758 -1.518L612 393z" fill="#2F5B5D"/><path d="M454 557h2a207 207 0 0 1 4 5c2.24 2.29 4.523 4.533 6.81 6.776q3.005 2.952 6.002 5.912l2.1 2.048 1.983 1.963 1.807 1.776C480 582 480 582 480 584l1.688 0.625c2.593 1.542 4.03 3.446 5.898 5.777 3.249 3.67 6.646 6.237 11.476 7.223 6.791 -1.445 10.54 -7.463 14.125 -12.937l2.852 -4.243 1.466 -2.202c2.495 -3.743 5.023 -7.463 7.558 -11.18l1.408 -2.097c3.303 -4.853 3.303 -4.853 5.529 -5.966 -4.234 11.671 -13.545 22.152 -21 32l-2.012 2.695c-2.753 3.453 -4.31 5.067 -8.55 6.555 -4.233 -0.308 -6.328 -1.569 -9.438 -4.25l-2.105 -1.746c-5.914 -5.104 -11.202 -10.687 -16.48 -16.434 -4.682 -5.088 -9.524 -9.986 -14.504 -14.784 -1.34 -1.31 -2.63 -2.668 -3.911 -4.036z" fill="#2B5759"/><path d="M648 326v1l-2.352 0.06c-3.55 0.096 -7.099 0.205 -10.648 0.315l-3.7 0.094c-6.398 0.207 -12.171 0.646 -18.3 2.531 -1.203 5.365 -1.203 5.365 0.25 10.375 1.86 1.813 1.86 1.813 4.75 3.625 -2.312 0.25 -2.312 0.25 -5 0 -2.924 -2.42 -3.018 -4.146 -3.5 -7.937 0.162 -3.108 0.562 -4.164 2.25 -6.938 9.738 -6.367 25.25 -5.227 36.25 -3.125" fill="#346266"/><path d="M535 451c0 6.435 -8.049 12.065 -12.469 16.488a1658 1658 0 0 1 -5.494 5.452c-3.744 3.71 -7.3 7.494 -10.607 11.607 -1.65 1.677 -3.286 2.515 -5.43 3.453 2.648 -4.2 5.39 -7.62 8.957 -11.117 0.7 -0.691 0.7 -0.691 1.412 -1.397q2.217 -2.186 4.443 -4.361c6.302 -6.182 12.473 -12.388 18.188 -19.125z" fill="#207B88"/><path d="m415 516 4 2v2l3 1c1.613 1.637 1.613 1.637 3.313 3.688 2.275 2.696 4.58 5.244 7.125 7.687C435 535 435 535 435 537l1.719 0.695c2.88 1.647 4.612 3.676 6.781 6.18 2.745 3.15 5.511 6.204 8.5 9.125l-1 2 -12 -12 -1.682 -1.557C436 540 436 540 436 538h-2c-1.41 -1.434 -1.41 -1.434 -3.062 -3.437 -4.57 -5.384 -9.525 -10.4 -14.704 -15.2C415 518 415 518 415 516" fill="#2C5B5E"/><path d="M612 392c4.007 1.655 6.97 4.422 10.125 7.313l1.629 1.435c3.091 2.818 5.284 5.128 6.246 9.252 -0.355 2.063 -0.355 2.063 -1.187 4l-0.899 2.094c-2.956 6.164 -7.073 12.065 -11.914 16.906 0.678 -4.882 3.995 -8.676 6.762 -12.604 2.753 -4.086 4.085 -7.333 4.238 -12.396 -2.98 -4.615 -7.025 -7.889 -11.23 -11.387C614 395 614 395 612 392" fill="#346163"/><path d="m425 461 2 1c-12.604 12.777 -12.604 12.777 -17.375 16.813 -7.997 6.761 -7.997 6.761 -11.625 16.187h-2c0.466 -4.762 1.459 -7.11 4.75 -10.562l2.441 -2.579q1.402 -1.431 2.809 -2.859l1.601 -1.643c5.595 -5.73 11.173 -11.307 17.399 -16.357" fill="#257D89"/><path d="M695 452c2 1 2 1 2.79 2.969l0.835 2.531c4.487 11.438 12.752 16.464 23.375 21.5 -3 1 -3 1 -5.855 -0.082 -9.261 -4.81 -16.156 -10.402 -20.145 -20.356 -1 -3.562 -1 -3.562 -1 -6.562" fill="#316266"/><path d="m564 421 1 3a1072 1072 0 0 1 -4.875 5l-2.742 2.813C555 434 555 434 553 434l-0.81 1.798c-1.206 2.231 -2.426 3.668 -4.23 5.436l-1.757 1.739 -1.828 1.777 -1.852 1.824Q540.268 448.793 538 451l-2 -1 1.266 -1.25c10.151 -9.907 10.151 -9.907 19.535 -20.527L558 427h2l0.875 -1.875C562 423 562 423 564 421" fill="#237D8A"/><path d="m597 386 3 1 -1.652 1.18c-5.456 4.047 -9.956 8.454 -14.403 13.586A84 84 0 0 1 579 407l-2 -1c4.07 -4.849 8.347 -9.454 12.813 -13.937l1.454 -1.469c3.485 -3.47 3.485 -3.47 5.733 -4.594" fill="#306569"/><path d="m374.981 325.865 3.777 0.158 2.01 0.076c2.119 0.083 4.238 0.18 6.357 0.276q2.154 0.087 4.309 0.172 5.283 0.212 10.566 0.453v1l-2.12 0.076q-4.847 0.177 -9.692 0.362l-3.334 0.119c-6.979 0.267 -13.906 0.731 -20.854 1.443l1.875 -0.875c6.07 -3.213 6.07 -3.213 7.106 -3.26" fill="#2B808C"/><path d="M586 398h2c-1.393 3.152 -3.025 5.262 -5.477 7.672l-2.03 2.012 -2.118 2.066 -2.14 2.113Q573.623 414.44 571 417l-2 -1 1.496 -1.46c0.64 -0.633 1.281 -1.264 1.942 -1.915l1.933 -1.898c1.708 -1.644 1.708 -1.644 2.629 -3.727h2l1 -3a141 141 0 0 1 5 -5z" fill="#247F8C"/><path d="M670 495c0 3 0 3 -2.187 5.48L665 503.187l-2.812 2.731L660 508c0 -3.719 0.874 -4.361 3.313 -7.062l1.863 -2.098C667 497 667 497 670 495" fill="#237A87"/><path d="M429 456v3c-2.406 2.262 -2.406 2.262 -5.5 4.688l-3.094 2.449L418 468l-2 -1q2.685 -2.473 5.375 -4.937l1.54 -1.42c3.858 -3.53 3.858 -3.53 6.085 -4.643" fill="#30686C"/><path d="m352 335 2 1c-5 4 -5 4 -7.5 5.938 -2.674 2.205 -5.085 4.578 -7.5 7.062 2.733 -5.894 6.952 -11.312 13 -14" fill="#26818E"/><path d="m598 387 2 1 -10 10 -2 -1c6.15 -7.483 6.15 -7.483 10 -10" fill="#24808D"/><path d="M297 485c3.256 3.256 4 7.477 4 12 -3 -2 -3 -2 -4 -5 -0.04 -2.333 -0.044 -4.667 0 -7" fill="#31686E"/><path d="m526 458 2 2 -7 6c1.048 -4.192 1.918 -5.216 5 -8" fill="#30696C"/><path d="M333 580h2c0.625 2.875 0.625 2.875 1 6l-2 2v-4l-3 -1h2z" fill="#2D6166"/><path d="m370 629 2 1Z" fill="#296F79"/><path d="m600 627 2 1Z" fill="#2C6C74"/><path d="" fill="#2B6E77"/><path d="m336 600 2 1Z" fill="#2B6F79"/><path d="" fill="#347E89"/><path d="m398 347 2 1Z" fill="#327C86"/><path d="" fill="#606160"/><path d="" fill="#606261"/><path d="" fill="#616061"/><path d="" fill="#616161"/><path d="" fill="#616161"/><path d="" fill="#606161"/><path d="" fill="#616262"/><path d="" fill="#616062"/><path d="" fill="#606263"/><path d="" fill="#606362"/><path d="" fill="#5E615F"/><path d="" fill="#626261"/><path d="" fill="#626361"/><path d="" fill="#5F6161"/><path d="" fill="#606160"/><path d="" fill="#5F6260"/><path d="" fill="#60615F"/><path d="" fill="#616160"/><path d="" fill="#60615F"/><path d="" fill="#616260"/><path d="" fill="#606262"/><path d="" fill="#626461"/><path d="" fill="#5F6463"/><path d="" fill="#606262"/><path d="" fill="#606460"/><path d="" fill="#626361"/><path d="" fill="#636162"/><path d="" fill="#616360"/><path d="" fill="#5F6261"/><path d="" fill="#60645F"/><path d="" fill="#5E6463"/><path d="" fill="#606361"/><path d="" fill="#606261"/><path d="" fill="#626261"/><path d="" fill="#616360"/><path d="" fill="#636261"/><path d="" fill="#616461"/><path d="" fill="#606363"/><path d="" fill="#5E6662"/><path d="" fill="#5F6362"/><path d="" fill="#606360"/><path d="" fill="#606362"/><path d="" fill="#606462"/><path d="" fill="#626461"/><path d="" fill="#606361"/><path d="" fill="#636363"/><path d="" fill="#636363"/><path d="" fill="#626361"/><path d="" fill="#5C6461"/><path d="" fill="#5E6363"/><path d="" fill="#5C6362"/><path d="" fill="#566362"/><path d="" fill="#5A6564"/><path d="" fill="#5E6763"/><path d="" fill="#5D6564"/><path d="" fill="#556462"/><path d="" fill="#646565"/><path d="" fill="#646564"/><path d="" fill="#636766"/><path d="" fill="#656765"/><path d="" fill="#4E6465"/><path d="" fill="#5F6666"/><path d="" fill="#576767"/><path d="" fill="#546867"/><path d="" fill="#636767"/><path d="" fill="#5D6766"/><path d="" fill="#45686B"/><path d="" fill="#4E6A6B"/><path d="" fill="#666869"/><path d="" fill="#296E78"/><path d="" fill="#2D6F78"/><path d="" fill="#616967"/><path d="" fill="#2C717A"/><path d="" fill="#306F77"/><path d="" fill="#2C7079"/><path d="" fill="#676969"/><path d="" fill="#3A6D74"/><path d="" fill="#496B70"/><path d="" fill="#666968"/><path d="" fill="#2D7178"/><path d="" fill="#2C7178"/><path d="" fill="#2E6D75"/><path d="" fill="#556B6B"/><path d="" fill="#2C717A"/><path d="" fill="#2E6F78"/><path d="" fill="#2B6E78"/><path d="" fill="#2A6F78"/><path d="" fill="#2A6F78"/><path d="" fill="#2A6E78"/><path d="" fill="#2B6E77"/><path d="" fill="#286F7A"/><path d="" fill="#446D73"/><path d="" fill="#2C7279"/><path d="" fill="#29747D"/><path d="" fill="#2D717B"/><path d="" fill="#28707A"/><path d="" fill="#666967"/><path d="" fill="#2C717C"/><path d="" fill="#29727B"/><path d="" fill="#24707A"/><path d="" fill="#2C737C"/><path d="" fill="#2D6F7A"/><path d="" fill="#286E78"/><path d="" fill="#29707D"/><path d="" fill="#2C727C"/><path d="" fill="#2B737F"/><path d="" fill="#2B747F"/><path d="" fill="#2C747E"/><path d="" fill="#27747C"/><path d="" fill="#2C767E"/><path d="" fill="#2A727E"/><path d="" fill="#2E7581"/><path d="" fill="#2D767E"/><path d="" fill="#307680"/><path d="" fill="#2E7784"/><path d="" fill="#2C7780"/><path d="" fill="#2C757E"/><path d="" fill="#307B82"/><path d="" fill="#2F7985"/><path d="" fill="#2D7880"/><path d="" fill="#2E7984"/><path d="" fill="#2E7B85"/><path d="" fill="#307A83"/><path d="" fill="#307984"/><path d="" fill="#2F7882"/><path d="" fill="#2F7B84"/><path d="" fill="#347C87"/><path d="" fill="#317B85"/><path d="" fill="#2F7D85"/><path d="" fill="#317F88"/><path d="" fill="#2E7E89"/><path d="" fill="#307881"/><path d="" fill="#387B82"/><path d="" fill="#2E7C85"/><path d="" fill="#307883"/><path d="" fill="#596B6B"/><path d="" fill="#3A7C85"/><path d="" fill="#2F8087"/><path d="" fill="#2E7C83"/><path d="" fill="#2C8089"/><path d="" fill="#2B7B85"/><path d="" fill="#2C7F87"/><path d="" fill="#646A6A"/><path d="" fill="#636C69"/><path d="" fill="#307D87"/><path d="" fill="#377E87"/><path d="" fill="#2F7E89"/><path d="" fill="#2F7E89"/><path d="" fill="#318189"/><path d="" fill="#666869"/><path d="" fill="#557070"/><path d="" fill="#357D86"/><path d="" fill="#32818B"/><path d="" fill="#347D86"/><path d="" fill="#2F7D89"/><path d="" fill="#31808A"/><path d="" fill="#307F89"/><path d="" fill="#327D87"/><path d="" fill="#338089"/><path d="" fill="#307F8A"/><path d="" fill="#327E8B"/><path d="" fill="#367F86"/><path d="" fill="#5B6D6D"/><path d="" fill="#337D87"/><path d="" fill="#307F8A"/><path d="" fill="#527072"/><path d="" fill="#31818B"/><path d="" fill="#30808A"/><path d="" fill="#2B7F8A"/><path d="" fill="#656968"/><path d="" fill="#5F6D6D"/><path d="" fill="#40767D"/><path d="" fill="#616E6A"/><path d="" fill="#437579"/><path d="" fill="#4A7579"/><path d="" fill="#666A68"/><path d="" fill="#3B7F86"/><path d="" fill="#367D85"/><path d="" fill="#666A67"/><path d="" fill="#4E6F71"/><path d="" fill="#5B6C6C"/><path d="" fill="#636C6A"/><path d="" fill="#646968"/><path d="" fill="#646A69"/><path d="" fill="#656766"/><path d="" fill="#5A6C6D"/><path d="" fill="#5F6A69"/><path d="" fill="#5B6B6A"/><path d="" fill="#5E6C68"/><path d="" fill="#5D6B69"/><path d="" fill="#5D6A69"/><path d="" fill="#606B6A"/><path d="" fill="#646664"/><path d="" fill="#616A68"/><path d="" fill="#626767"/><path d="" fill="#646768"/><path d="" fill="#646362"/><path d="" fill="#656965"/><path d="" fill="#636765"/><path d="" fill="#636766"/><path d="" fill="#656565"/><path d="" fill="#646967"/><path d="" fill="#646667"/><path d="" fill="#626464"/><path d="" fill="#656666"/><path d="" fill="#646767"/><path d="" fill="#656564"/><path d="" fill="#656767"/><path d="" fill="#646664"/><path d="" fill="#656766"/><path d="" fill="#656765"/><path d="" fill="#656667"/><path d="" fill="#666767"/><path d="" fill="#646766"/><path d="" fill="#656766"/><path d="" fill="#666867"/></svg>